<svg width="166" height="166" viewBox="0 0 166 166" fill="none" xmlns="http://www.w3.org/2000/svg">
<path d="M165.8 83.0002C165.8 128.659 128.659 165.8 83.0002 165.8C37.3414 165.8 0.200195 128.659 0.200195 83.0002C0.200195 37.345 37.3414 0.200195 83.0002 0.200195C128.659 0.200195 165.8 37.345 165.8 83.0002ZM32.6002 72.2002H54.2002C55.1578 72.2002 56.0722 71.8222 56.7454 71.1454L72.1318 55.759C74.2738 57.0262 76.7362 57.8002 79.4002 57.8002C87.3418 57.8002 93.8002 51.3418 93.8002 43.4002C93.8002 35.4586 87.3418 29.0002 79.4002 29.0002C71.4586 29.0002 65.0002 35.4586 65.0002 43.4002C65.0002 46.0642 65.7742 48.5266 67.0414 50.6686L52.7098 65.0002H32.6002C30.6094 65.0002 29.0002 66.613 29.0002 68.6002C29.0002 70.5874 30.6094 72.2002 32.6002 72.2002ZM133.4 93.8002H111.8C110.843 93.8002 109.928 94.1782 109.255 94.855L93.8686 110.241C91.7266 108.974 89.2642 108.2 86.6002 108.2C78.6586 108.2 72.2002 114.659 72.2002 122.6C72.2002 130.542 78.6586 137 86.6002 137C94.5418 137 101 130.542 101 122.6C101 119.936 100.226 117.474 98.959 115.332L113.291 101H133.4C135.391 101 137 99.391 137 97.4002C137 95.4094 135.391 93.8002 133.4 93.8002ZM74.7454 96.3454L95.2906 75.8002H133.4C135.391 75.8002 137 74.1874 137 72.2002C137 70.213 135.391 68.6002 133.4 68.6002H93.8002C92.8426 68.6002 91.9282 68.9782 91.255 69.655L70.7098 90.2002H32.6002C30.6094 90.2002 29.0002 91.8094 29.0002 93.8002C29.0002 95.791 30.6094 97.4002 32.6002 97.4002H72.2002C73.1578 97.4002 74.0722 97.0222 74.7454 96.3454Z" fill="#2388FF"/>
</svg>
